<svg version="1" xmlns="http://www.w3.org/2000/svg" width="5298.667" height="5298.667" viewBox="0 0 3974.000000 3974.000000"><path d="M1464.5 298.3c-795 459.2-1020.4 589.5-1143 660.5-13.7 8-28.9 16.8-33.8 19.6l-8.7 5 .4 945.6c.2 520 .8 950.2 1.2 956 .5 5.8 1.3 11.2 1.9 12 .5.8 1.2 4.2 1.5 7.4l.5 5.9 24 14.5c22.7 13.6 24.2 14.7 27.5 19.9 4.1 6.5 10.3 12 22 19.6 11.3 7.3 952.2 550.3 962.5 555.5 9.2 4.6 17.3 7.2 22.4 7.2 7.7 0 15.3-6.3 18-15 2.6-8.4 3.2-24.3 5.1-125.4 2.4-130.3 2.5-158.6.5-167.9-2.9-13.7-11-24.6-25.8-34.5l-7.7-5.3.1-11.6c0-8.4-.3-11.9-1.3-12.8-1.2-1.1-83.7-48.8-528.3-305.3-74.8-43.1-144.4-83.4-154.7-89.5l-18.7-11.1-.8-5.5c-.4-3.1-.8-344.2-.8-758.1 0-710.8.1-752.9 1.7-760 4.1-17.5 13.7-30.2 32.3-42.2 12.5-8.2 1272.6-735.8 1289-744.4 21.3-11.1 35.3-13.4 51.5-8.5 7.2 2.2 26.6 11.7 39.8 19.5l6.2 3.7V2079h48.7l.7 5.1c1.1 8.4 4.3 15.5 9.2 20.3 5.2 5.2 11.8 8 22.8 9.5 5.4.8 104.7 1.1 327.6 1.1h319.8l.6 29.2c.4 16.1.6 86.1.4 155.6l-.3 126.3-187 108c-102.8 59.4-267 154.2-364.7 210.6L2049 2847.4v180.3c0 99.2.4 180.3.8 180.3.5 0 9.1-4.8 19.3-10.6 10.1-5.8 20.5-11.7 23-12.9l4.5-2.3 1.2 11.4c2.9 29.3 15.4 35.4 43.2 21.1 14.1-7.3 945.7-545.4 956.1-552.3 15.8-10.4 23-19.5 27.6-34.9 1.7-5.7 1.8-23.8 2.1-388.5.2-270.9 0-384.9-.8-390.8-.6-4.6-2-10.8-3.1-13.8-3.8-10.1-13.3-17-26.2-18.9l-4.7-.7-.2-24.2-.3-24.1-346.5-.5-346.5-.5V1538c0-213.1.1-227.9 1.7-234.3 4.3-16.5 12.1-23.7 25.8-23.7 8.7 0 16.2 2.4 28.9 9.1 5.1 2.8 146 83.9 313 180.3s307.5 177.4 312.2 180c25.5 13.8 39.2 11.2 44.6-8.5 1.7-6 1.8-15.3 1.8-146.4 0-152 .2-145.5-5.6-158.3-3.4-7.6-12.3-17.2-22.1-23.9l-6.8-4.7v-24.1l-329.2-190c-406.7-234.7-362.4-208.8-363.3-212.8-.5-1.7-1.1-126.3-1.4-276.7-.6-255.6-.8-273.9-2.4-279.9-3.8-13.9-11.4-23.9-25.4-33.4l-7.1-4.9-.4-12.1c-.4-11.3-.6-12.1-2.8-13.6-6.6-4.5-413.8-239.1-414.8-239.1-.4.1-216.7 124.8-480.7 277.3z"/><path d="M2570.2 562.1l.3 180.4 12 7.1c6.6 3.9 18.6 11 26.7 15.7 13.1 7.8 15.1 9.3 18.3 14.2 4.4 6.6 10.3 11.9 21 19 6.1 4 629.1 364.3 646.7 373.9l3.8 2.1-.3 776.4-.2 776.4-656 378.9c-360.8 208.3-665.2 384.1-676.4 390.5l-20.4 11.7-5.1-2.8c-2.8-1.6-17.6-10.1-32.8-19-24.5-14.3-27.7-16.4-28.4-19.1-.4-1.6-1-608.3-1.3-1348-.6-1290.3-.7-1345.2-2.4-1351-4.1-13.9-11.7-18.8-24.5-16-3.1.6-6.5 1.5-7.4 2-1.7.7-1.8-1.6-2-35.6-.2-20-.7-36.3-1.1-36.2-.6.1-334.9 192.7-336.5 193.9-.2.1-19.4 92.6-42.8 205.6-23.3 112.9-58.2 281.3-77.4 374.3-46.8 226.3-54 260.9-54.5 260.3-.5-.6-16.1-52.2-87-287.7-38.8-128.9-71.9-237.7-73.6-241.8-6.3-15-13.8-22.2-24.2-23.1l-5.2-.4-10-32.4c-5.8-19-10.3-32.3-11-32-.5.2-72.5 41.7-160 92.3l-159 91.8-.3 661.6-.2 661.6 21.2 12.3c29.6 17.2 33 19.4 35.2 23.1 4.4 7.5 13.7 15.7 27 23.9 13.9 8.4 213.3 123.4 221.6 127.7 24.1 12.4 36.5 9.3 42.2-10.9.9-3.4 1.4-97.4 1.8-430.8.5-306.3 1-429.1 1.8-435.7 1.7-14.3 3.4-22.5 4.2-21.6.4.4 40.7 120.3 89.4 266.3 48.8 146 88.9 266.2 89.3 267 .3.9 1.2-.6 2.3-4 7.2-23.3 14.5-45 15.1-45 .4 0 1 1.2 1.4 2.8 1.2 5.1 9.5 21.5 13 25.8 8.8 10.7 17.9 6.9 26.4-11.1 4.9-10.4 8-19.8 71.2-221 33.6-106.7 64.9-205.7 69.7-220l8.7-26 .3 853.5.2 853.5 17.3 10c32.4 18.7 37.6 22 38.7 24.4 3.5 7.7 15 17.5 33.5 28.4 24 14.2 315.6 182.3 324 186.8 26 13.9 41.6 13.5 69.2-1.8 16.8-9.3 1579.7-911.9 1589.5-918 23.2-14.3 31-25.3 33.8-47.3.7-6 1-282.1.8-938-.3-887.9-.4-929.8-2.1-935.5-4.2-14.1-11.8-24.2-25-33l-7.4-5-.7-12.5c-.4-6.8-.8-12.5-.9-12.6-.2-.2-960-554.2-1017.2-587.2-11.5-6.6-21.8-12.4-22.8-12.7-1.6-.7-1.7 8.1-1.5 179.6z"/></svg>